<svg width="1600" height="900" viewBox="0 0 1600 900" fill="none" xmlns="http://www.w3.org/2000/svg">
  <rect width="1600" height="900" fill="#0D0D0D"/>
  <g opacity="0.12">
    <circle cx="1340" cy="140" r="240" fill="#D9D9D9"/>
    <circle cx="260" cy="760" r="300" fill="#D9D9D9"/>
    <circle cx="870" cy="420" r="180" fill="#404040"/>
  </g>
  <g opacity="0.16" stroke="#D9D9D9" stroke-width="2">
    <path d="M0 128H1600"/>
    <path d="M0 256H1600"/>
    <path d="M0 384H1600"/>
    <path d="M0 512H1600"/>
    <path d="M0 640H1600"/>
    <path d="M0 768H1600"/>
    <path d="M228 0V900"/>
    <path d="M456 0V900"/>
    <path d="M684 0V900"/>
    <path d="M912 0V900"/>
    <path d="M1140 0V900"/>
    <path d="M1368 0V900"/>
  </g>
  <g opacity="0.28">
    <path d="M1120 126C1242 98 1367 138 1466 242C1565 346 1611 474 1594 606" stroke="#D9D9D9" stroke-width="10"/>
    <path d="M-58 660C105 574 255 548 391 582C527 616 638 696 724 822" stroke="#404040" stroke-width="18"/>
  </g>
</svg>
